<?xml version="1.0" encoding="utf-8"?>
<!-- Generator: Adobe Illustrator 21.1.0, SVG Export Plug-In . SVG Version: 6.00 Build 0)  -->
<svg version="1.1" id="vamtiger-node-typescript-commit"
	 xmlns="http://www.w3.org/2000/svg" xmlns:xlink="http://www.w3.org/1999/xlink" x="0px" y="0px" width="246px" height="414px"
	 viewBox="0 0 246 414" style="enable-background:new 0 0 246 414;" xml:space="preserve">
<style type="text/css">
	.st0{font-family:'BarlowSemiCondensed-Regular';}
	.st1{font-size:14.423px;}
	.st2{fill:none;stroke:#E99856;stroke-width:9;stroke-linecap:round;stroke-miterlimit:10;}
	.st3{fill:none;stroke:#92DDA1;stroke-width:9;stroke-linecap:round;stroke-miterlimit:10;}
	.st4{fill:none;stroke:url(#merge_x5F_2_3_);stroke-width:9;stroke-linecap:round;stroke-miterlimit:10;}
	.st5{fill:none;stroke:#000000;stroke-width:9;stroke-miterlimit:10;}
	.st6{fill:none;stroke:url(#merge_x5F_1_3_);stroke-width:9;stroke-linecap:round;stroke-miterlimit:10;}
	.st7{fill:url(#merge_x5F_1_4_);stroke:url(#merge_x5F_1_5_);stroke-width:9;stroke-miterlimit:10;}
	.st8{fill:#92DDA1;}
	.st9{fill:#E99856;}
</style>
<g id="vamtiger-node-typescript-commit_1_">
	<g id="Labels">
		<text transform="matrix(1 0 0 1 164.3286 348.9385)" class="st0 st1">master</text>
		<text transform="matrix(1 0 0 1 42.9116 348.9395)" class="st0 st1">source</text>
		<text transform="matrix(1 0 0 1 25.4014 44.2598)" class="st0 st1">Development</text>
		<text transform="matrix(1 0 0 1 152.8047 44.2598)" class="st0 st1">Publication</text>
	</g>
	<g id="branch">
		<line id="master" class="st2" x1="184" y1="60" x2="184" y2="316"/>
		<line id="source" class="st3" x1="62" y1="60" x2="62" y2="316"/>
	</g>
	<g id="merge">
		<linearGradient id="merge_x5F_2_3_" gradientUnits="userSpaceOnUse" x1="57.4635" y1="281.5264" x2="188.5371" y2="281.5264">
			<stop  offset="0" style="stop-color:#92DDA1"/>
			<stop  offset="1" style="stop-color:#E99856"/>
		</linearGradient>
		<path id="merge_x5F_2_2_" class="st4" d="M62,243.4c0,0,30.1,71.7,122.1,76.2"/>
		<path id="merge_x5F_2_1_" class="st5" d="M62,281.9"/>
		<linearGradient id="merge_x5F_1_3_" gradientUnits="userSpaceOnUse" x1="57.4635" y1="133.6902" x2="188.5371" y2="133.6902">
			<stop  offset="0" style="stop-color:#92DDA1"/>
			<stop  offset="1" style="stop-color:#E99856"/>
		</linearGradient>
		<path id="merge_x5F_1_2_" class="st6" d="M62,95.6c0,0,30.1,71.7,122.1,76.2"/>
		<linearGradient id="merge_x5F_1_4_" gradientUnits="userSpaceOnUse" x1="61.9635" y1="134.0842" x2="61.9635" y2="134.0842">
			<stop  offset="0" style="stop-color:#FFFFFF"/>
			<stop  offset="1" style="stop-color:#000000"/>
		</linearGradient>
		<linearGradient id="merge_x5F_1_5_" gradientUnits="userSpaceOnUse" x1="61.9635" y1="134.0842" x2="61.9635" y2="134.0842">
			<stop  offset="0" style="stop-color:#FFFFFF"/>
			<stop  offset="1" style="stop-color:#000000"/>
		</linearGradient>
		<path id="merge_x5F_1_1_" class="st7" d="M62,134.1"/>
	</g>
	<g id="commit">
		<g id="source_1_">
			<circle class="st8" cx="62.3" cy="243.9" r="11.7"/>
			<circle class="st8" cx="62.3" cy="96.1" r="11.7"/>
		</g>
		<g id="master_1_">
			<circle class="st9" cx="184" cy="171.8" r="11.7"/>
			<circle class="st9" cx="184" cy="319.6" r="11.7"/>
		</g>
	</g>
	<text transform="matrix(1 0 0 1 24.8384 378.9424)" class="st0 st1">VAMTIGER Node Typescript Commit</text>
</g>
</svg>
